<svg width="860" height="220" viewBox="0 0 860 220" fill="none" xmlns="http://www.w3.org/2000/svg">
  <path d="M565 66H763C780.7 66 795 80.3 795 98V125C773.5 128.4 757 147 757 169C757 191 773.5 209.6 795 213V228C795 245.7 780.7 260 763 260H565C547.3 260 533 245.7 533 228V213C511.5 209.6 495 191 495 169C495 147 511.5 128.4 533 125V98C533 80.3 547.3 66 565 66Z" transform="translate(0 -45)" stroke="#101C2F" stroke-width="18" stroke-linejoin="round"/>
  <text x="50" y="150" fill="#101C2F" font-family="Inter, Arial, Helvetica, sans-serif" font-size="112" font-weight="800" letter-spacing="0">Eventful</text>
</svg>
